<svg width="53" height="53" xmlns="http://www.w3.org/2000/svg" xmlns:xlink="http://www.w3.org/1999/xlink" xml:space="preserve" overflow="hidden"><defs><clipPath id="clip0"><rect x="13" y="296" width="53" height="53"/></clipPath></defs><g clip-path="url(#clip0)" transform="translate(-13 -296)"><path d="M56.0625 307.042 46.6771 307.042 46.6771 304.281C46.6771 302.128 44.9656 300.417 42.8125 300.417L36.1875 300.417C34.0344 300.417 32.3229 302.128 32.3229 304.281L32.3229 307.042 22.9375 307.042C21.7229 307.042 20.7292 308.035 20.7292 309.25L20.7292 311.458 58.2708 311.458 58.2708 309.25C58.2708 308.035 57.2771 307.042 56.0625 307.042ZM35.6354 304.281C35.6354 303.95 35.8563 303.729 36.1875 303.729L42.8125 303.729C43.1437 303.729 43.3646 303.95 43.3646 304.281L43.3646 307.042 35.6354 307.042 35.6354 304.281Z"/><path d="M24.0417 342.375C24.0417 343.59 25.0354 344.583 26.25 344.583L52.75 344.583C53.9646 344.583 54.9583 343.59 54.9583 342.375L54.9583 313.667 24.0417 313.667 24.0417 342.375ZM46.6771 316.979 49.9896 316.979 49.9896 341.271 46.6771 341.271 46.6771 316.979ZM37.8438 316.979 41.1562 316.979 41.1562 341.271 37.8438 341.271 37.8438 316.979ZM29.0104 316.979 32.3229 316.979 32.3229 341.271 29.0104 341.271 29.0104 316.979Z"/></g></svg>